<svg width="20" height="20" viewBox="0 0 20 20" fill="none" xmlns="http://www.w3.org/2000/svg">
<path d="M15.62 8.75001C15.19 8.75001 14.85 8.40001 14.85 7.98001C14.85 7.61001 14.48 6.84001 13.86 6.17001C13.25 5.52001 12.58 5.14001 12.02 5.14001C11.59 5.14001 11.25 4.79001 11.25 4.37001C11.25 3.95001 11.6 3.60001 12.02 3.60001C13.02 3.60001 14.07 4.14001 14.99 5.11001C15.85 6.02001 16.4 7.15001 16.4 7.97001C16.4 8.40001 16.05 8.75001 15.62 8.75001Z" fill="#141820"/>
<path d="M19.23 8.75C18.8 8.75 18.46 8.4 18.46 7.98C18.46 4.43 15.57 1.55 12.03 1.55C11.6 1.55 11.26 1.2 11.26 0.78C11.26 0.36 11.6 0 12.02 0C16.42 0 20 3.58 20 7.98C20 8.4 19.65 8.75 19.23 8.75Z" fill="#141820"/>
<path opacity="0.4" d="M9.79 12.21L6.52 15.48C6.16 15.16 5.81 14.83 5.47 14.49C4.44 13.45 3.51 12.36 2.68 11.22C1.86 10.08 1.2 8.94 0.72 7.81C0.24 6.67 0 5.58 0 4.54C0 3.86 0.12 3.21 0.36 2.61C0.6 2 0.98 1.44 1.51 0.94C2.15 0.31 2.85 0 3.59 0C3.87 0 4.15 0.0600001 4.4 0.18C4.66 0.3 4.89 0.48 5.07 0.74L7.39 4.01C7.57 4.26 7.7 4.49 7.79 4.71C7.88 4.92 7.93 5.13 7.93 5.32C7.93 5.56 7.86 5.8 7.72 6.03C7.59 6.26 7.4 6.5 7.16 6.74L6.4 7.53C6.29 7.64 6.24 7.77 6.24 7.93C6.24 8.01 6.25 8.08 6.27 8.16C6.3 8.24 6.33 8.3 6.35 8.36C6.53 8.69 6.84 9.12 7.28 9.64C7.73 10.16 8.21 10.69 8.73 11.22C9.09 11.57 9.44 11.91 9.79 12.21Z" fill="#141820"/>
<path d="M19.97 16.33C19.97 16.61 19.92 16.9 19.82 17.18C19.79 17.26 19.76 17.34 19.72 17.42C19.55 17.78 19.33 18.12 19.04 18.44C18.55 18.98 18.01 19.37 17.4 19.62C17.39 19.62 17.38 19.63 17.37 19.63C16.78 19.87 16.14 20 15.45 20C14.43 20 13.34 19.76 12.19 19.27C11.04 18.78 9.89001 18.12 8.75001 17.29C8.36001 17 7.97001 16.71 7.60001 16.4L10.87 13.13C11.15 13.34 11.4 13.5 11.61 13.61C11.66 13.63 11.72 13.66 11.79 13.69C11.87 13.72 11.95 13.73 12.04 13.73C12.21 13.73 12.34 13.67 12.45 13.56L13.21 12.81C13.46 12.56 13.7 12.37 13.93 12.25C14.16 12.11 14.39 12.04 14.64 12.04C14.83 12.04 15.03 12.08 15.25 12.17C15.47 12.26 15.7 12.39 15.95 12.56L19.26 14.91C19.52 15.09 19.7 15.3 19.81 15.55C19.91 15.8 19.97 16.05 19.97 16.33Z" fill="#141820"/>
</svg>
