<svg width="120" height="120" viewBox="0 0 120 120" fill="none" xmlns="http://www.w3.org/2000/svg">
<path d="M10.9366 74.2026L10.814 73.7821C10.7527 73.577 10.6813 73.3823 10.6098 73.1977C10.3682 72.574 9.95345 72.033 9.41482 71.6389C8.88075 71.2673 8.26315 71.0347 7.6174 70.9621C6.93107 70.8887 6.23707 70.9515 5.57482 71.1467C4.88883 71.3215 4.24576 71.6356 3.6854 72.0697C3.16609 72.4648 2.75211 72.9826 2.48028 73.5771C2.21496 74.1898 2.13335 74.8669 2.24541 75.5255C2.27603 75.7333 2.32039 75.9388 2.37818 76.1408C2.37818 76.3561 2.45986 76.4894 2.48028 76.5612L3.24625 79.3197L11.7434 76.9612L10.9366 74.2026ZM9.29227 74.2026C9.35355 74.3769 9.3944 74.5205 9.42504 74.6334L9.73142 75.7613L4.25732 77.279L3.94072 76.151C3.94072 76.0382 3.87946 75.8946 3.82839 75.71C3.78787 75.545 3.76053 75.377 3.74667 75.2075C3.71756 74.8469 3.80727 74.4866 4.002 74.1821C4.21709 73.8587 4.49928 73.5859 4.82924 73.3823C5.18981 73.1543 5.58222 72.9815 5.99352 72.8696C6.39191 72.7562 6.80516 72.7043 7.21908 72.7157C7.60626 72.7208 7.98837 72.8045 8.34248 72.9618C8.67746 73.1233 8.94764 73.3946 9.10844 73.7309C9.18412 73.8786 9.24566 74.033 9.29227 74.1923V74.2026Z" fill="white"/>
<path d="M9.45301 67.09L0.735596 68.4623L0.99343 70.1136L9.71085 68.7414L9.45301 67.09Z" fill="white"/>
<path d="M2.20449 65.7939C2.9898 66.1586 3.85338 66.3207 4.71688 66.2656C5.39018 66.2521 6.05508 66.1129 6.67774 65.8554C7.21254 65.6141 7.69226 65.2651 8.08713 64.8299C8.45233 64.4326 8.73372 63.9652 8.91437 63.4558C9.09761 62.9435 9.1775 62.3996 9.14931 61.856C9.14037 61.0804 8.92143 60.3219 8.51605 59.6616C8.1294 59.0503 7.57656 58.5628 6.92284 58.2568C6.21656 57.9311 5.44187 57.7832 4.66583 57.826H4.43089H4.14496L4.26751 61.0152H5.55435V59.6103C5.96334 59.6709 6.35591 59.8139 6.70841 60.0308C7.00466 60.2121 7.24229 60.4757 7.39266 60.7896C7.55148 61.1077 7.63201 61.4593 7.62753 61.8151C7.66288 62.3091 7.54898 62.8023 7.30071 63.2302C7.05425 63.6188 6.69895 63.9256 6.27942 64.1121C5.77951 64.3298 5.2413 64.4448 4.69644 64.4505C4.14906 64.4816 3.60095 64.405 3.08284 64.2249C2.64766 64.0783 2.26674 63.8031 1.99006 63.4353C1.71714 63.0223 1.57473 62.5362 1.58152 62.0407C1.54389 61.5366 1.69304 61.0363 2.00028 60.6358C2.31112 60.2451 2.73058 59.9559 3.20539 59.8051L2.89896 58.1029C2.02951 58.3015 1.25439 58.7938 0.703222 59.4975C0.169181 60.2967 -0.0726015 61.257 0.0189758 62.215C0.0444489 62.9402 0.255459 63.6465 0.631725 64.266C1.00448 64.9121 1.54907 65.4411 2.20449 65.7939Z" fill="white"/>
<path d="M0.295722 54.4232L0.160767 56.0892L8.95568 56.8075L9.09063 55.1415L0.295722 54.4232Z" fill="white"/>
<path d="M2.48012 50.1965L9.62915 51.5296L9.93553 49.8786L2.78651 48.5558L3.29715 45.8075L1.76522 45.5204L0.447754 52.6576L1.97969 52.9448L2.48012 50.1965Z" fill="white"/>
<path d="M10.8958 45.787L9.33322 44.6591L10.3545 41.5005H12.2745L12.826 39.8598L3.6344 39.6035L2.83777 41.9723L10.3341 47.3662L10.8958 45.787ZM8.00549 43.7361L4.71697 41.3775L8.80213 41.48L8.00549 43.7361Z" fill="white"/>
<path d="M15.7367 34.2505L14.3375 33.5532L12.6422 36.968L6.13657 33.707L5.40125 35.2042L13.2856 39.1625L15.7367 34.2505Z" fill="white"/>
<path d="M17.5647 31.3998L16.4106 29.8513L18.3817 27.1646L20.1995 27.8004L21.2208 26.4057L12.5195 23.3293L11.0488 25.3803L16.5638 32.8046L17.5647 31.3998ZM16.8395 26.6211L15.4404 28.5387L13.0199 25.288L16.8395 26.6211Z" fill="white"/>
<path d="M25.4592 21.6681C25.6578 20.978 25.6578 20.2456 25.4592 19.5556C25.2225 18.8054 24.805 18.1257 24.2438 17.5765L24.0804 17.4226L23.866 17.2279L21.6089 19.4736L22.5178 20.3862L23.5391 19.3608C23.777 19.7021 23.9406 20.0899 24.0192 20.499C24.0827 20.8428 24.0509 21.1976 23.9272 21.5245C23.7948 21.8542 23.5886 22.1489 23.3246 22.3859C22.9797 22.7419 22.5401 22.9911 22.0582 23.1038C21.6094 23.1863 21.1461 23.129 20.7306 22.9396C20.2321 22.7185 19.7838 22.3974 19.4131 21.9962C19.0198 21.6129 18.7041 21.1568 18.4837 20.6529C18.3032 20.2297 18.25 19.7627 18.3306 19.3095C18.4452 18.8283 18.7057 18.3948 19.0761 18.0687C19.4205 17.697 19.8899 17.4668 20.3935 17.4226C20.8887 17.3882 21.3828 17.5025 21.8131 17.7509L22.8344 16.3766C22.1019 15.8706 21.2188 15.6318 20.3323 15.6999C19.3842 15.842 18.5145 16.3093 17.871 17.0227C17.3425 17.5354 16.9584 18.1793 16.7578 18.8891C16.5537 19.6028 16.5537 20.3597 16.7578 21.0733C17.0167 21.9008 17.4806 22.6488 18.1059 23.2473C18.5754 23.736 19.129 24.1354 19.74 24.4265C20.2589 24.6679 20.8226 24.7971 21.3944 24.8059C21.9342 24.8132 22.4696 24.7085 22.9672 24.4984C23.4644 24.2777 23.9176 23.9685 24.3051 23.5857C24.85 23.0587 25.2479 22.3975 25.4592 21.6681Z" fill="white"/>
<path d="M32.4448 16.7151L31.5358 15.4435L28.2166 17.8534L26.8889 16.0178L29.6056 14.0387L28.6966 12.7671L25.98 14.7462L24.8668 13.208L28.186 10.7982L27.2668 9.53687L22.6097 12.9312L27.7775 20.1094L32.4448 16.7151Z" fill="white"/>
<path d="M34.8244 15.341L32.1282 10.0906L38.2355 13.5772L39.7368 12.7978L35.6925 4.92224L34.1912 5.70159L36.8874 10.952L30.7801 7.4654L29.2788 8.24475L33.3231 16.1203L34.8244 15.341Z" fill="white"/>
<path d="M42.2186 11.4648C42.9999 11.6345 43.8126 11.5848 44.5676 11.3212C45.4445 11.0683 46.2176 10.5399 46.7736 9.81367C47.2761 9.11631 47.5411 8.2748 47.5293 7.41412L45.7931 7.48597C45.8064 7.99842 45.664 8.50269 45.3846 8.93179C45.0649 9.3655 44.6073 9.67661 44.0876 9.81367C43.6259 9.98328 43.1238 10.0084 42.6476 9.88552C42.2048 9.7592 41.8121 9.49758 41.5241 9.13695C41.1758 8.71462 40.9154 8.22642 40.7582 7.70128C40.5826 7.18031 40.5098 6.63002 40.5437 6.08109C40.5691 5.62073 40.7369 5.17969 41.0237 4.81966C41.3396 4.43863 41.7635 4.16331 42.2391 4.03016C42.7456 3.8567 43.2951 3.8567 43.8017 4.03016C44.2833 4.21079 44.6949 4.54129 44.9761 4.9735L46.4264 4.00963C45.925 3.30155 45.2082 2.77605 44.3838 2.51236C43.5134 2.23296 42.5748 2.25468 41.7182 2.57395C40.9332 2.78853 40.2249 3.22232 39.6756 3.82499C39.1834 4.38448 38.8641 5.0758 38.7565 5.81446C38.6498 6.64286 38.7337 7.48468 39.0016 8.27547C39.2401 9.07519 39.6595 9.8088 40.2271 10.4188C40.7707 10.9611 41.4649 11.3258 42.2186 11.4648Z" fill="white"/>
<path d="M51.0324 9.50607L52.6971 9.22919L52.1252 5.67083L54.2597 0L52.3397 0.30764L50.9813 3.90702L48.5609 0.933174L46.6409 1.24081L50.4503 5.9477L51.0324 9.50607Z" fill="white"/>
<path d="M57.906 3.54184L57.8606 4.83307L65.9442 5.11935L65.9896 3.82812L57.906 3.54184Z" fill="white"/>
<path d="M72.3466 10.2341C72.561 10.2341 72.7653 10.3161 72.9594 10.3469C73.6193 10.4472 74.2939 10.3509 74.8998 10.07C75.4835 9.78775 75.9887 9.36509 76.3705 8.83951C76.7893 8.26516 77.0912 7.61353 77.259 6.92189C77.432 6.25283 77.4771 5.55688 77.3917 4.87096C77.304 4.22287 77.0585 3.60649 76.6769 3.0764C76.282 2.54073 75.7384 2.13404 75.1143 1.90735C74.9176 1.83017 74.7164 1.76517 74.5118 1.71257L74.1032 1.59979L71.3355 0.892151L69.1602 9.47529L71.9279 10.1829L72.3466 10.2341ZM72.5815 2.78924L73.7151 3.0764L74.1441 3.18918C74.3084 3.23439 74.469 3.29273 74.6241 3.36356C74.9565 3.51379 75.227 3.77455 75.3901 4.10186C75.5671 4.44842 75.6648 4.83027 75.676 5.21959C75.6971 5.64439 75.6523 6.0699 75.5432 6.48089C75.4446 6.88837 75.2863 7.27889 75.0735 7.63967C74.8755 7.97372 74.6113 8.26349 74.2973 8.49089C73.9977 8.69809 73.6395 8.80233 73.276 8.78819C73.104 8.77351 72.9333 8.74613 72.7653 8.70619L72.3364 8.60367L71.2027 8.31651L72.5815 2.78924Z" fill="white"/>
<path d="M80.3637 3.50965L77.2389 11.7955L78.7957 12.3875L81.9205 4.10158L80.3637 3.50965Z" fill="white"/>
<path d="M81.2829 10.5624C81.2111 11.1336 81.2598 11.7135 81.4259 12.2646C81.5838 12.7823 81.8483 13.2609 82.2021 13.6695C82.5568 14.0918 82.9905 14.4402 83.4787 14.6949C84.1557 15.071 84.9217 15.2554 85.6949 15.2282C86.4109 15.1886 87.1012 14.947 87.6864 14.531C88.3222 14.0742 88.8375 13.4687 89.1878 12.7671C89.2158 12.6925 89.2499 12.6205 89.2899 12.5517L89.4022 12.2954L86.5834 10.829L85.9911 11.9673L87.2268 12.6133C86.978 12.9494 86.6614 13.2289 86.2975 13.4336C85.9834 13.5987 85.6299 13.6733 85.2762 13.6491C84.9168 13.6346 84.5663 13.5325 84.2549 13.3516C83.8219 13.1176 83.4668 12.761 83.2336 12.3262C83.0131 11.9228 82.9238 11.4602 82.9783 11.0033C83.0395 10.4613 83.2023 9.93589 83.4583 9.45482C83.7137 8.95978 84.0602 8.51784 84.4796 8.15246C84.824 7.84937 85.2508 7.65663 85.7051 7.59879C86.1975 7.55865 86.69 7.67328 87.1145 7.92689C87.568 8.13242 87.9311 8.49705 88.1358 8.95235C88.3118 9.42018 88.3542 9.92809 88.2584 10.4188L89.8822 10.9828C90.1348 10.1282 90.088 9.21253 89.7495 8.38842C89.3202 7.51631 88.5963 6.82573 87.7069 6.44001C87.0601 6.09619 86.3343 5.92996 85.603 5.95807C84.8695 5.98802 84.1602 6.23011 83.5604 6.65532C82.8561 7.15799 82.2904 7.83194 81.9162 8.61399C81.5804 9.21571 81.3653 9.87766 81.2829 10.5624Z" fill="white"/>
<path d="M92.8799 9.8139L87.9291 17.1479L89.3071 18.0857L94.2579 10.7517L92.8799 9.8139Z" fill="white"/>
<path d="M96.8985 14.6026L92.2209 20.1914L93.4976 21.2682L98.1751 15.6794L100.299 17.4739L101.3 16.2741L95.7648 11.6083L94.764 12.8081L96.8985 14.6026Z" fill="white"/>
<path d="M96.5921 24.1395L98.3385 23.3294L100.555 25.811L99.5334 27.462L100.677 28.7541L105.447 20.8273L103.792 18.9609L95.4176 22.8577L96.5921 24.1395ZM99.8091 22.632L103.476 20.9298L101.433 24.4062L99.8091 22.632Z" fill="white"/>
<path d="M104.17 34.0454L105.457 33.1738L103.343 30.0051L109.389 25.9443L108.459 24.5599L101.126 29.4821L104.17 34.0454Z" fill="white"/>
<path d="M105.732 37.0604L107.642 36.8245L108.99 39.9009L107.55 41.1725L108.245 42.7415L115.21 36.6707L114.189 34.3839L104.997 35.5222L105.732 37.0604ZM109.256 36.6194L113.27 36.1169L110.206 38.7933L109.256 36.6194Z" fill="white"/>
<path d="M115.047 41.3775C114.203 41.1989 113.328 41.2377 112.504 41.4903C111.846 41.6509 111.226 41.9364 110.676 42.3312C110.207 42.6654 109.813 43.0952 109.521 43.5925C109.251 44.0576 109.08 44.5747 109.021 45.1102C108.957 45.6537 109.002 46.2046 109.154 46.7304C109.327 47.5049 109.713 48.2153 110.267 48.7813C110.774 49.2971 111.42 49.6534 112.126 49.8068C112.887 49.9694 113.677 49.9377 114.424 49.7145L114.648 49.653L114.924 49.5607L114.087 46.4843L112.851 46.8228L113.208 48.1763C112.798 48.213 112.384 48.1641 111.993 48.0327C111.666 47.9177 111.377 47.7157 111.155 47.4483C110.934 47.1682 110.777 46.8425 110.696 46.4945C110.552 46.0199 110.552 45.5131 110.696 45.0385C110.855 44.6283 111.128 44.2725 111.482 44.013C111.922 43.6876 112.422 43.4539 112.953 43.3259C113.479 43.1677 114.031 43.1154 114.577 43.172C115.034 43.2183 115.465 43.4044 115.813 43.7053C116.172 44.044 116.421 44.4836 116.527 44.9666C116.678 45.45 116.646 45.9724 116.436 46.4331C116.201 46.8668 115.846 47.223 115.414 47.4585L116.099 49.0479C116.898 48.6607 117.54 48.009 117.916 47.2022C118.259 46.3007 118.281 45.3081 117.978 44.3924C117.81 43.6835 117.458 43.0322 116.956 42.5055C116.443 41.9502 115.779 41.558 115.047 41.3775Z" fill="white"/>
<path d="M111.105 57.3133L112.647 57.139L112.197 53.0474L114.444 52.8013L114.822 56.1443L116.364 55.9699L115.997 52.6269L117.866 52.4116L118.325 56.4929L119.877 56.3186L119.234 50.576L110.461 51.5604L111.105 57.3133Z" fill="white"/>
<path d="M111.125 60.0513L116.997 60.2769L110.972 63.8968L110.9 65.5888L119.724 65.9374L119.785 64.2454L113.913 64.0096L119.939 60.3897L120 58.6977L111.186 58.349L111.125 60.0513Z" fill="white"/>
<path d="M115.179 67.2808C114.37 67.0903 113.528 67.0903 112.718 67.2808C111.997 67.4624 111.344 67.8507 110.839 68.3986C110.308 68.997 109.955 69.7322 109.818 70.5213C109.596 71.4088 109.667 72.3446 110.022 73.1875C110.382 73.9709 110.979 74.6205 111.727 75.0437L112.524 73.4849C112.087 73.2565 111.73 72.8985 111.503 72.4595C111.293 71.9637 111.25 71.413 111.38 70.8905C111.46 70.3992 111.688 69.9444 112.034 69.5881C112.365 69.268 112.785 69.0569 113.239 68.9831C113.775 68.8773 114.327 68.8773 114.863 68.9831C115.399 69.0807 115.91 69.2865 116.364 69.5881C116.748 69.8334 117.048 70.1914 117.222 70.6136C117.395 71.0795 117.424 71.5873 117.304 72.0698C117.217 72.6023 116.955 73.09 116.558 73.4542C116.166 73.7831 115.679 73.9772 115.169 74.0079L115.282 75.7512C116.137 75.666 116.943 75.3065 117.579 74.7257C118.243 74.0982 118.684 73.2699 118.836 72.3671C119.023 71.5875 118.991 70.7711 118.744 70.0086C118.502 69.301 118.058 68.6805 117.467 68.2243C116.791 67.7303 116.006 67.4067 115.179 67.2808Z" fill="white"/>
<path d="M108.163 77.074L107.571 78.6634L110.941 79.9248L114.791 84.5906L115.476 82.755L113.025 79.7915L116.803 79.1557L117.488 77.3303L111.534 78.3353L108.163 77.074Z" fill="white"/>
<path d="M108.806 85.3862L104.575 92.3081L105.672 92.984L109.903 86.062L108.806 85.3862Z" fill="white"/>
<path d="M97.3171 95.03L97.0311 95.3478C96.884 95.4959 96.7507 95.6572 96.6328 95.8297C96.2153 96.3511 95.9659 96.9878 95.9179 97.6551C95.869 98.3059 95.9849 98.9585 96.255 99.5522C96.5477 100.198 96.9642 100.78 97.4805 101.265C97.9857 101.762 98.5823 102.155 99.2371 102.424C99.8419 102.67 100.499 102.758 101.147 102.68C101.806 102.594 102.426 102.32 102.934 101.89L103.394 101.46L103.7 101.152L105.671 99.101L99.2984 92.9482L97.3171 95.03ZM102.567 100.065L102.25 100.383C102.128 100.507 101.994 100.621 101.852 100.721C101.555 100.935 101.195 101.043 100.83 101.029C100.445 101.012 100.069 100.911 99.7273 100.731C99.3534 100.532 99.0095 100.28 98.706 99.9829C98.3987 99.6835 98.1403 99.3375 97.94 98.9575C97.7438 98.6209 97.6186 98.2475 97.5724 97.8603C97.5455 97.4984 97.6389 97.1377 97.8379 96.8348C97.9297 96.6879 98.0357 96.5504 98.1545 96.4246L98.4507 96.0964L99.2575 95.2555L103.343 99.2036L102.567 100.065Z" fill="white"/>
<path d="M93.3779 98.9074L92.0967 99.9747L97.7308 106.794L99.012 105.726L93.3779 98.9074Z" fill="white"/>
<path d="M92.3435 102.988C91.8785 102.647 91.3508 102.403 90.7911 102.27C90.266 102.157 89.723 102.157 89.1979 102.27C88.6622 102.374 88.1521 102.583 87.6966 102.885C87.0364 103.289 86.4994 103.867 86.1443 104.556C85.828 105.191 85.6936 105.901 85.7562 106.607C85.8395 107.388 86.1092 108.138 86.5426 108.792L86.6754 108.986C86.7571 109.089 86.8081 109.171 86.849 109.212L89.5145 107.479L88.8099 106.392L87.6354 107.151C87.4707 106.769 87.3906 106.357 87.4005 105.941C87.4052 105.595 87.5079 105.257 87.6966 104.967C87.8917 104.667 88.1541 104.418 88.4626 104.239C88.8604 103.976 89.3247 103.834 89.8005 103.828C90.259 103.843 90.7031 103.992 91.0771 104.259C91.5164 104.579 91.8879 104.983 92.1699 105.449C92.4952 105.883 92.7312 106.378 92.8644 106.905C92.9564 107.356 92.9101 107.824 92.7316 108.248C92.5074 108.69 92.15 109.049 91.7103 109.274C91.2989 109.569 90.7931 109.7 90.2907 109.643C89.7972 109.574 89.335 109.36 88.963 109.027L87.666 110.156C88.2767 110.804 89.0922 111.221 89.9741 111.335C90.9307 111.395 91.8778 111.115 92.6499 110.545C93.2705 110.15 93.7775 109.598 94.1205 108.945C94.456 108.284 94.601 107.542 94.5393 106.802C94.4486 105.937 94.1431 105.108 93.6508 104.392C93.301 103.85 92.8584 103.375 92.3435 102.988Z" fill="white"/>
<path d="M83.2945 105.626L81.8004 106.363L85.6921 114.315L87.1862 113.578L83.2945 105.626Z" fill="white"/>
<path d="M78.5766 107.766L77.014 108.351L79.5468 115.191L76.9425 116.165L77.4838 117.631L84.2549 115.098L83.7137 113.632L81.1094 114.606L78.5766 107.766Z" fill="white"/>
<path d="M72.99 109.643L72.8267 111.571L69.579 112.278L68.6394 110.596L66.9645 110.966L71.4683 119.046L73.899 118.513L74.665 109.284L72.99 109.643ZM72.3773 117.241L70.3347 113.704L72.6428 113.191L72.3773 117.241Z" fill="white"/>
<path d="M60.7958 112.935L64.5848 112.647L65.1261 119.928L66.7908 119.805L66.1372 110.966L60.6835 111.376L60.7958 112.935Z" fill="white"/>
<path d="M56.5471 113.058L53.2382 112.74L52.8603 110.843L51.1445 110.679L52.9726 119.754L55.4441 120L58.988 111.448L57.2824 111.284L56.5471 113.058ZM54.382 118.318L53.565 114.339L55.9242 114.575L54.382 118.318Z" fill="white"/>
<path d="M49.7558 111.335C49.501 110.871 49.1532 110.467 48.7345 110.145C48.2939 109.826 47.799 109.589 47.2741 109.448C46.5286 109.243 45.742 109.243 44.9966 109.448C44.3046 109.649 43.6821 110.039 43.1991 110.576C42.6962 111.165 42.3455 111.869 42.1778 112.627C42.1778 112.627 42.1778 112.729 42.1778 112.863L42.1166 113.14L45.1804 113.939L45.5072 112.688L44.1591 112.34C44.3221 111.948 44.5698 111.598 44.8843 111.314C45.1455 111.087 45.4631 110.934 45.8034 110.873C46.1451 110.826 46.4929 110.85 46.8247 110.945C47.3016 111.068 47.736 111.32 48.0809 111.673C48.378 112.021 48.5663 112.449 48.6222 112.904C48.6805 113.447 48.6354 113.997 48.4894 114.524C48.3663 115.06 48.1371 115.566 47.8154 116.011C47.5639 116.38 47.2083 116.666 46.7941 116.831C46.3229 116.986 45.815 116.986 45.3438 116.831C44.8517 116.718 44.4168 116.43 44.1183 116.021C43.8412 115.608 43.6887 115.124 43.6792 114.627L41.9633 114.432C41.9035 115.322 42.1525 116.206 42.668 116.934C43.2709 117.682 44.117 118.194 45.0579 118.38C45.7664 118.575 46.5144 118.575 47.223 118.38C47.9383 118.187 48.5834 117.792 49.0818 117.241C49.6523 116.592 50.0525 115.809 50.246 114.965C50.436 114.299 50.495 113.602 50.4196 112.914C50.3116 112.346 50.0854 111.808 49.7558 111.335Z" fill="white"/>
<path d="M37.1222 105.931L36.5095 107.366L40.2678 108.986L39.3691 111.078L36.2848 109.745L35.672 111.181L38.7563 112.514L38.021 114.257L34.2524 112.637L33.6396 114.073L38.9299 116.349L42.4125 108.207L37.1222 105.931Z" fill="white"/>
<path d="M34.7121 104.577L31.6176 109.602L31.4542 102.557L30.0142 101.665L25.3776 109.192L26.8074 110.084L29.9019 105.069L30.0755 112.114L31.5053 113.006L36.1522 105.479L34.7121 104.577Z" fill="white"/>
<path d="M26.4805 104.556C27.042 103.937 27.4543 103.197 27.6856 102.393C27.895 101.676 27.895 100.915 27.6856 100.198C27.4257 99.438 26.963 98.7642 26.3477 98.25C25.6848 97.6253 24.8402 97.2299 23.9375 97.1218C23.0837 97.0474 22.2286 97.2486 21.4966 97.6962L22.4464 99.1625C22.8784 98.886 23.3848 98.7499 23.8966 98.7728C24.4289 98.8287 24.9279 99.0594 25.3162 99.4291C25.6975 99.7466 25.9751 100.172 26.1129 100.65C26.2352 101.096 26.2137 101.57 26.0516 102.003C25.8638 102.517 25.5756 102.987 25.2039 103.387C24.8513 103.808 24.4213 104.156 23.9375 104.413C23.5277 104.621 23.0649 104.699 22.6098 104.639C22.1216 104.562 21.6686 104.337 21.3128 103.993C20.8968 103.651 20.6028 103.183 20.4753 102.659C20.3882 102.154 20.4596 101.635 20.6796 101.173L19.117 100.414C18.7654 101.198 18.6758 102.076 18.8617 102.916C19.077 103.801 19.5713 104.592 20.2711 105.172C20.8394 105.716 21.5462 106.092 22.3136 106.259C23.0463 106.391 23.8013 106.309 24.489 106.023C25.2589 105.699 25.9415 105.196 26.4805 104.556Z" fill="white"/>
<path d="M21.4251 93.6147L20.3323 92.3124L17.585 94.6299L11.6411 95.6862L12.8871 97.1833L16.6659 96.5065L15.3484 100.126L16.5944 101.624L18.6676 95.9323L21.4251 93.6147Z" fill="white"/>
<path d="M9.88566 82.982L8.75757 83.6036L12.6494 90.7235L13.7775 90.1018L9.88566 82.982Z" fill="white"/>
<circle cx="60" cy="60" r="7" fill="#3FABE3"/>
</svg>
